<?xml version="1.0" standalone="no"?>
<!DOCTYPE svg PUBLIC "-//W3C//DTD SVG 20010904//EN"
 "http://www.w3.org/TR/2001/REC-SVG-20010904/DTD/svg10.dtd">
<svg version="1.0" xmlns="http://www.w3.org/2000/svg"
 width="200.000000pt" height="200.000000pt" viewBox="0 0 200.000000 200.000000"
 preserveAspectRatio="xMidYMid meet">
<metadata>
Created by potrace 1.11, written by Peter Selinger 2001-2013
</metadata>
<g transform="translate(0.000000,200.000000) scale(0.100000,-0.100000)"
fill="#000000" stroke="none">
<path d="M867 1623 c-4 -21 -9 -71 -13 -111 -7 -76 -11 -82 -47 -86 -46 -6
-134 -37 -184 -66 -97 -56 -152 -155 -148 -265 2 -75 13 -112 60 -205 123
-247 285 -413 413 -424 35 -3 37 -5 37 -41 0 -26 -5 -39 -15 -40 -126 -20
-203 -85 -203 -172 1 -43 -4 -53 -40 -90 -22 -24 -42 -48 -44 -55 -1 -7 -5
-25 -9 -40 l-6 -28 58 0 c54 0 62 3 84 30 14 17 27 30 30 30 3 0 14 -13 23
-30 l18 -30 195 0 c208 0 203 -1 237 53 15 23 21 26 38 16 12 -6 28 -24 37
-40 16 -27 21 -29 80 -29 56 0 62 2 62 20 0 48 -73 150 -117 164 -14 4 -18 16
-18 53 0 103 -74 149 -260 162 -5 1 -11 25 -13 55 -2 53 -1 55 40 86 211 161
347 450 303 646 -22 96 -74 159 -170 205 -72 34 -142 49 -253 53 -46 2 -84 5
-85 7 -2 2 -14 38 -27 79 -13 41 -32 88 -41 103 l-16 28 -6 -38z"/>
</g>
</svg>
